<svg version="1.1" xmlns="http://www.w3.org/2000/svg" xmlns:xlink="http://www.w3.org/1999/xlink" width="2721" height="1000"><defs></defs><g><g transform="translate(-14,2) scale(1,1)"><rect fill="#C0C0C0" stroke="none" x="591" y="327" width="309" height="185" opacity="0.2"></rect></g><g transform="translate(-14,2) scale(1,1)"><rect fill="#ffffff" stroke="none" x="584" y="320" width="309" height="185"></rect></g><g transform="translate(-14,2) scale(1,1)"><path fill="none" stroke="#000000" d="M 584 320 L 893 320 L 893 505 L 584 505 L 584 320 Z Z" stroke-miterlimit="10"></path></g><g transform="translate(-14,2) scale(1,1)"><path fill="none" stroke="#000000" d="M 584 358 L 893 358" stroke-miterlimit="10"></path></g><g transform="translate(-14,2) scale(1,1)"><path fill="none" stroke="#000000" d="M 584 368 L 893 368" stroke-miterlimit="10"></path></g><g transform="translate(-14,2) scale(1,1)"><path fill="none" stroke="#000000" d="M 584 496 L 893 496" stroke-miterlimit="10"></path></g><g transform="translate(-14,2) scale(1,1)"><g><path fill="none" stroke="none"></path><text fill="#000000" stroke="none" font-family="Arial" font-size="13px" font-style="normal" font-weight="normal" text-decoration="none" x="716" y="337.5">«class»</text></g></g><g transform="translate(-14,2) scale(1,1)"><g><path fill="none" stroke="none"></path><text fill="#000000" stroke="none" font-family="Arial" font-size="13px" font-style="normal" font-weight="bold" text-decoration="none" x="600.5" y="352.5">control.control_process.control_process.Control</text></g></g><g transform="translate(-14,2) scale(1,1)"><g><path fill="none" stroke="none"></path><text fill="#000000" stroke="none" font-family="Arial" font-size="13px" font-style="normal" font-weight="normal" text-decoration="none" x="589" y="385.5">«function»+refresh_current_selection()</text></g></g><g transform="translate(-14,2) scale(1,1)"><g><path fill="none" stroke="none"></path><text fill="#000000" stroke="none" font-family="Arial" font-size="13px" font-style="normal" font-weight="normal" text-decoration="none" x="589" y="400.5">+control_model()</text></g></g><g transform="translate(-14,2) scale(1,1)"><g><path fill="none" stroke="none"></path><text fill="#000000" stroke="none" font-family="Arial" font-size="13px" font-style="normal" font-weight="normal" text-decoration="none" x="589" y="415.5">+save_to_disk()</text></g></g><g transform="translate(-14,2) scale(1,1)"><g><path fill="none" stroke="none"></path><text fill="#000000" stroke="none" font-family="Arial" font-size="13px" font-style="normal" font-weight="normal" text-decoration="none" x="589" y="430.5">+load_from_disk()</text></g></g><g transform="translate(-14,2) scale(1,1)"><g><path fill="none" stroke="none"></path><text fill="#000000" stroke="none" font-family="Arial" font-size="13px" font-style="normal" font-weight="normal" text-decoration="none" x="589" y="445.5">+modify_runtime()</text></g></g><g transform="translate(-14,2) scale(1,1)"><g><path fill="none" stroke="none"></path><text fill="#000000" stroke="none" font-family="Arial" font-size="13px" font-style="normal" font-weight="normal" text-decoration="none" x="589" y="460.5">+import_prj_fromdisk()</text></g></g><g transform="translate(-14,2) scale(1,1)"><g><path fill="none" stroke="none"></path><text fill="#000000" stroke="none" font-family="Arial" font-size="13px" font-style="normal" font-weight="normal" text-decoration="none" x="589" y="475.5">+output_to_folder()</text></g></g><g transform="translate(-14,2) scale(1,1)"><g><path fill="none" stroke="none"></path><text fill="#000000" stroke="none" font-family="Arial" font-size="13px" font-style="normal" font-weight="normal" text-decoration="none" x="589" y="490.5">+load_help_msg()</text></g></g><g transform="translate(-14,2) scale(1,1)"><rect fill="#C0C0C0" stroke="none" x="31" y="503" width="424" height="72" opacity="0.2"></rect></g><g transform="translate(-14,2) scale(1,1)"><rect fill="#ffffff" stroke="none" x="24" y="496" width="424" height="72"></rect></g><g transform="translate(-14,2) scale(1,1)"><path fill="none" stroke="#000000" d="M 24 496 L 448 496 L 448 568 L 24 568 L 24 496 Z Z" stroke-miterlimit="10"></path></g><g transform="translate(-14,2) scale(1,1)"><path fill="none" stroke="#000000" d="M 24 521 L 448 521" stroke-miterlimit="10"></path></g><g transform="translate(-14,2) scale(1,1)"><path fill="none" stroke="#000000" d="M 24 531 L 448 531" stroke-miterlimit="10"></path></g><g transform="translate(-14,2) scale(1,1)"><g><path fill="none" stroke="none"></path><text fill="#000000" stroke="none" font-family="Arial" font-size="13px" font-style="normal" font-weight="bold" text-decoration="none" x="48" y="515.5">control.control_functionlist.control_function.Function_List_Control</text></g></g><g transform="translate(-14,2) scale(1,1)"><g><path fill="none" stroke="none"></path><text fill="#000000" stroke="none" font-family="Arial" font-size="13px" font-style="normal" font-weight="normal" text-decoration="none" x="29" y="548.5">+refresh(obj)</text></g></g><g transform="translate(-14,2) scale(1,1)"><g><path fill="none" stroke="none"></path><text fill="#000000" stroke="none" font-family="Arial" font-size="13px" font-style="normal" font-weight="normal" text-decoration="none" x="29" y="563.5">+send_funcs_data()</text></g></g><g transform="translate(-14,2) scale(1,1)"><rect fill="#C0C0C0" stroke="none" x="2247" y="375" width="485" height="57" opacity="0.2"></rect></g><g transform="translate(-14,2) scale(1,1)"><rect fill="#ffffff" stroke="none" x="2240" y="368" width="485" height="57"></rect></g><g transform="translate(-14,2) scale(1,1)"><path fill="none" stroke="#000000" d="M 2240 368 L 2725 368 L 2725 425 L 2240 425 L 2240 368 Z Z" stroke-miterlimit="10"></path></g><g transform="translate(-14,2) scale(1,1)"><path fill="none" stroke="#000000" d="M 2240 393 L 2725 393" stroke-miterlimit="10"></path></g><g transform="translate(-14,2) scale(1,1)"><path fill="none" stroke="#000000" d="M 2240 403 L 2725 403" stroke-miterlimit="10"></path></g><g transform="translate(-14,2) scale(1,1)"><g><path fill="none" stroke="none"></path><text fill="#000000" stroke="none" font-family="Arial" font-size="13px" font-style="normal" font-weight="bold" text-decoration="none" x="2265.5" y="387.5">control.control_parameters.control_choose_pointlist.ChoosePoinListControl</text></g></g><g transform="translate(-14,2) scale(1,1)"><g><path fill="none" stroke="none"></path><text fill="#000000" stroke="none" font-family="Arial" font-size="13px" font-style="normal" font-weight="normal" text-decoration="none" x="2245" y="420.5">+set_textctrl_datas()</text></g></g><g transform="translate(-14,2) scale(1,1)"><rect fill="#C0C0C0" stroke="none" x="2175" y="455" width="485" height="117" opacity="0.2"></rect></g><g transform="translate(-14,2) scale(1,1)"><rect fill="#ffffff" stroke="none" x="2168" y="448" width="485" height="117"></rect></g><g transform="translate(-14,2) scale(1,1)"><path fill="none" stroke="#000000" d="M 2168 448 L 2653 448 L 2653 565 L 2168 565 L 2168 448 Z Z" stroke-miterlimit="10"></path></g><g transform="translate(-14,2) scale(1,1)"><path fill="none" stroke="#000000" d="M 2168 473 L 2653 473" stroke-miterlimit="10"></path></g><g transform="translate(-14,2) scale(1,1)"><path fill="none" stroke="#000000" d="M 2168 483 L 2653 483" stroke-miterlimit="10"></path></g><g transform="translate(-14,2) scale(1,1)"><g><path fill="none" stroke="none"></path><text fill="#000000" stroke="none" font-family="Arial" font-size="13px" font-style="normal" font-weight="bold" text-decoration="none" x="2221" y="467.5">control.control_parameters.control_if_condition.IFConditionControl</text></g></g><g transform="translate(-14,2) scale(1,1)"><g><path fill="none" stroke="none"></path><text fill="#000000" stroke="none" font-family="Arial" font-size="13px" font-style="normal" font-weight="normal" text-decoration="none" x="2173" y="500.5">+refresh_paras()</text></g></g><g transform="translate(-14,2) scale(1,1)"><g><path fill="none" stroke="none"></path><text fill="#000000" stroke="none" font-family="Arial" font-size="13px" font-style="normal" font-weight="normal" text-decoration="none" x="2173" y="515.5">+add_condition()</text></g></g><g transform="translate(-14,2) scale(1,1)"><g><path fill="none" stroke="none"></path><text fill="#000000" stroke="none" font-family="Arial" font-size="13px" font-style="normal" font-weight="normal" text-decoration="none" x="2173" y="530.5">+delete_condition()</text></g></g><g transform="translate(-14,2) scale(1,1)"><g><path fill="none" stroke="none"></path><text fill="#000000" stroke="none" font-family="Arial" font-size="13px" font-style="normal" font-weight="normal" text-decoration="none" x="2173" y="545.5">+change_tree_selection()</text></g></g><g transform="translate(-14,2) scale(1,1)"><g><path fill="none" stroke="none"></path><text fill="#000000" stroke="none" font-family="Arial" font-size="13px" font-style="normal" font-weight="normal" text-decoration="none" x="2173" y="560.5">+save_paras()</text></g></g><g transform="translate(-14,2) scale(1,1)"><rect fill="#C0C0C0" stroke="none" x="1567" y="207" width="357" height="57" opacity="0.2"></rect></g><g transform="translate(-14,2) scale(1,1)"><rect fill="#ffffff" stroke="none" x="1560" y="200" width="357" height="57"></rect></g><g transform="translate(-14,2) scale(1,1)"><path fill="none" stroke="#000000" d="M 1560 200 L 1917 200 L 1917 257 L 1560 257 L 1560 200 Z Z" stroke-miterlimit="10"></path></g><g transform="translate(-14,2) scale(1,1)"><path fill="none" stroke="#000000" d="M 1560 225 L 1917 225" stroke-miterlimit="10"></path></g><g transform="translate(-14,2) scale(1,1)"><path fill="none" stroke="#000000" d="M 1560 235 L 1917 235" stroke-miterlimit="10"></path></g><g transform="translate(-14,2) scale(1,1)"><g><path fill="none" stroke="none"></path><text fill="#000000" stroke="none" font-family="Arial" font-size="13px" font-style="normal" font-weight="bold" text-decoration="none" x="1581.5" y="219.5">control.control_parameters.control_parameters.Control</text></g></g><g transform="translate(-14,2) scale(1,1)"><g><path fill="none" stroke="none"></path><text fill="#000000" stroke="none" font-family="Arial" font-size="13px" font-style="normal" font-weight="normal" text-decoration="none" x="1565" y="252.5">+refresh_paraslist()</text></g></g><g transform="translate(-14,2) scale(1,1)"><rect fill="#C0C0C0" stroke="none" x="1103" y="879" width="327" height="70" opacity="0.2"></rect></g><g transform="translate(-14,2) scale(1,1)"><rect fill="#ffffff" stroke="none" x="1096" y="872" width="327" height="70"></rect></g><g transform="translate(-14,2) scale(1,1)"><path fill="none" stroke="#000000" d="M 1096 872 L 1423 872 L 1423 942 L 1096 942 L 1096 872 Z Z" stroke-miterlimit="10"></path></g><g transform="translate(-14,2) scale(1,1)"><path fill="none" stroke="#000000" d="M 1096 897 L 1423 897" stroke-miterlimit="10"></path></g><g transform="translate(-14,2) scale(1,1)"><path fill="none" stroke="#000000" d="M 1096 907 L 1423 907" stroke-miterlimit="10"></path></g><g transform="translate(-14,2) scale(1,1)"><g><path fill="none" stroke="none"></path><text fill="#000000" stroke="none" font-family="Arial" font-size="13px" font-style="normal" font-weight="bold" text-decoration="none" x="1113" y="891.5">control.control_process.control_process_showdata</text></g></g><g transform="translate(-14,2) scale(1,1)"><g><path fill="none" stroke="none"></path><text fill="#000000" stroke="none" font-family="Arial" font-size="13px" font-style="normal" font-weight="normal" text-decoration="none" x="1101" y="924.5">+refresh_tree()</text></g></g><g transform="translate(-14,2) scale(1,1)"><rect fill="#C0C0C0" stroke="none" x="1111" y="615" width="269" height="87" opacity="0.2"></rect></g><g transform="translate(-14,2) scale(1,1)"><rect fill="#ffffff" stroke="none" x="1104" y="608" width="269" height="87"></rect></g><g transform="translate(-14,2) scale(1,1)"><path fill="none" stroke="#000000" d="M 1104 608 L 1373 608 L 1373 695 L 1104 695 L 1104 608 Z Z" stroke-miterlimit="10"></path></g><g transform="translate(-14,2) scale(1,1)"><path fill="none" stroke="#000000" d="M 1104 633 L 1373 633" stroke-miterlimit="10"></path></g><g transform="translate(-14,2) scale(1,1)"><path fill="none" stroke="#000000" d="M 1104 643 L 1373 643" stroke-miterlimit="10"></path></g><g transform="translate(-14,2) scale(1,1)"><g><path fill="none" stroke="none"></path><text fill="#000000" stroke="none" font-family="Arial" font-size="13px" font-style="normal" font-weight="bold" text-decoration="none" x="1120" y="627.5">control.control_process.TreeItemsControl</text></g></g><g transform="translate(-14,2) scale(1,1)"><g><path fill="none" stroke="none"></path><text fill="#000000" stroke="none" font-family="Arial" font-size="13px" font-style="normal" font-weight="normal" text-decoration="none" x="1109" y="660.5">+add_obj()</text></g></g><g transform="translate(-14,2) scale(1,1)"><g><path fill="none" stroke="none"></path><text fill="#000000" stroke="none" font-family="Arial" font-size="13px" font-style="normal" font-weight="normal" text-decoration="none" x="1109" y="675.5">+delete_obj()</text></g></g><g transform="translate(-14,2) scale(1,1)"><g><path fill="none" stroke="none"></path><text fill="#000000" stroke="none" font-family="Arial" font-size="13px" font-style="normal" font-weight="normal" text-decoration="none" x="1109" y="690.5">+change_obj()</text></g></g><g transform="translate(-14,2) scale(1,1)"><path fill="none" stroke="#000000" d="M 236 496 L 236 476 L 478 476 L 478 532 L 448 532" stroke-miterlimit="10"></path></g><g transform="translate(-14,2) scale(1,1)"><g><path fill="none" stroke="none"></path><text fill="#000000" stroke="none" font-family="Arial" font-size="13px" font-style="normal" font-weight="normal" text-decoration="none" x="296" y="468">+view control(operation: refresh)</text></g></g><g transform="translate(-14,2) scale(1,1)"><rect fill="#C0C0C0" stroke="none" x="687" y="807" width="122" height="72" opacity="0.2"></rect></g><g transform="translate(-14,2) scale(1,1)"><rect fill="#ffffff" stroke="none" x="680" y="800" width="122" height="72"></rect></g><g transform="translate(-14,2) scale(1,1)"><path fill="none" stroke="#000000" d="M 680 800 L 802 800 L 802 872 L 680 872 L 680 800 Z Z" stroke-miterlimit="10"></path></g><g transform="translate(-14,2) scale(1,1)"><path fill="none" stroke="#000000" d="M 680 825 L 802 825" stroke-miterlimit="10"></path></g><g transform="translate(-14,2) scale(1,1)"><path fill="none" stroke="#000000" d="M 680 835 L 802 835" stroke-miterlimit="10"></path></g><g transform="translate(-14,2) scale(1,1)"><g><path fill="none" stroke="none"></path><text fill="#000000" stroke="none" font-family="Arial" font-size="13px" font-style="normal" font-weight="bold" text-decoration="none" x="690.5" y="819.5">pubsub Controller</text></g></g><g transform="translate(-14,2) scale(1,1)"><g><path fill="none" stroke="none"></path><text fill="#000000" stroke="none" font-family="Arial" font-size="13px" font-style="normal" font-weight="normal" text-decoration="none" x="685" y="852.5">+sendMessage()</text></g></g><g transform="translate(-14,2) scale(1,1)"><g><path fill="none" stroke="none"></path><text fill="#000000" stroke="none" font-family="Arial" font-size="13px" font-style="normal" font-weight="normal" text-decoration="none" x="685" y="867.5">+subscribe()</text></g></g><g transform="translate(-14,2) scale(1,1)"><path fill="none" stroke="#000000" d="M 236 496 L 236 476 L 478 476 L 478 532 L 448 532" stroke-miterlimit="10"></path></g><g transform="translate(-14,2) scale(1,1)"><path fill="none" stroke="#000000" d="M 458.16267485762415 527.790482243984 L 448 532 L 458.16267485762415 536.209517756016" stroke-miterlimit="10"></path></g><g transform="translate(-14,2) scale(1,1)"><path fill="#ffffff" stroke="none" d="M 304 688 L 478 688 L 488 698 L 488 736 L 304 736 L 304 688"></path></g><g transform="translate(-14,2) scale(1,1)"><path fill="none" stroke="#000000" d="M 304 688 L 478 688 L 488 698 L 488 736 L 304 736 L 304 688 L 304 688" stroke-miterlimit="10"></path></g><g transform="translate(-14,2) scale(1,1)"><path fill="none" stroke="#000000" d="M 478 688 L 478 698 L 488 698 L 478 688" stroke-miterlimit="10"></path></g><g transform="translate(-14,2) scale(1,1)"><g><path fill="none" stroke="none"></path><text fill="#000000" stroke="none" font-family="Arial" font-size="13px" font-style="normal" font-weight="normal" text-decoration="none" x="309" y="706">pub.subscribe('refesh_funcs')</text></g></g><g transform="translate(-14,2) scale(1,1)"><path fill="none" stroke="#000000" d="M 269 569 L 374 687" stroke-miterlimit="10" stroke-dasharray="3"></path></g><g transform="translate(-14,2) scale(1,1)"><path fill="none" stroke="#000000" d="M 236 496 L 236 476 L 478 476 L 478 532 L 448 532" stroke-miterlimit="10"></path></g><g transform="translate(-14,2) scale(1,1)"><path fill="none" stroke="#000000" d="M 458.16267485762415 527.790482243984 L 448 532 L 458.16267485762415 536.209517756016" stroke-miterlimit="10"></path></g><g transform="translate(-14,2) scale(1,1)"><path fill="none" stroke="#000000" d="M 236 496 L 236 476 L 478 476 L 478 532 L 448 532" stroke-miterlimit="10"></path></g><g transform="translate(-14,2) scale(1,1)"><path fill="none" stroke="#000000" d="M 458.16267485762415 527.790482243984 L 448 532 L 458.16267485762415 536.209517756016" stroke-miterlimit="10"></path></g><g transform="translate(-14,2) scale(1,1)"><path fill="none" stroke="#000000" d="M 236 569 L 240 832 L 679 836" stroke-miterlimit="10"></path></g><g transform="translate(-14,2) scale(1,1)"><path fill="none" stroke="#000000" d="M 668.7993930539285 840.1167484659325 L 679 836 L 668.8761008995141 831.6980624129144" stroke-miterlimit="10"></path></g><g transform="translate(-14,2) scale(1,1)"><g><path fill="none" stroke="none"></path><text fill="#000000" stroke="none" font-family="Arial" font-size="13px" font-style="normal" font-weight="normal" text-decoration="none" x="400" y="829">+refresh funcs data</text></g></g><g transform="translate(-14,2) scale(1,1)"><path fill="#ffffff" stroke="none" d="M 328 872 L 581 872 L 591 882 L 591 920 L 328 920 L 328 872"></path></g><g transform="translate(-14,2) scale(1,1)"><path fill="none" stroke="#000000" d="M 328 872 L 581 872 L 591 882 L 591 920 L 328 920 L 328 872 L 328 872" stroke-miterlimit="10"></path></g><g transform="translate(-14,2) scale(1,1)"><path fill="none" stroke="#000000" d="M 581 872 L 581 882 L 591 882 L 581 872" stroke-miterlimit="10"></path></g><g transform="translate(-14,2) scale(1,1)"><g><path fill="none" stroke="none"></path><text fill="#000000" stroke="none" font-family="Arial" font-size="13px" font-style="normal" font-weight="normal" text-decoration="none" x="333" y="890">pub.sendMessage('refresh_func_ret', data)</text></g></g><g transform="translate(-14,2) scale(1,1)"><path fill="none" stroke="#000000" d="M 459 834 L 460 871" stroke-miterlimit="10" stroke-dasharray="3"></path></g><g transform="translate(-14,2) scale(1,1)"><path fill="#ffffff" stroke="none" d="M 968 320 L 1314 320 L 1324 330 L 1324 368 L 968 368 L 968 320"></path></g><g transform="translate(-14,2) scale(1,1)"><path fill="none" stroke="#000000" d="M 968 320 L 1314 320 L 1324 330 L 1324 368 L 968 368 L 968 320 L 968 320" stroke-miterlimit="10"></path></g><g transform="translate(-14,2) scale(1,1)"><path fill="none" stroke="#000000" d="M 1314 320 L 1314 330 L 1324 330 L 1314 320" stroke-miterlimit="10"></path></g><g transform="translate(-14,2) scale(1,1)"><g><path fill="none" stroke="none"></path><text fill="#000000" stroke="none" font-family="Arial" font-size="13px" font-style="normal" font-weight="normal" text-decoration="none" x="973" y="338">pub.subscribe(self._get_funcs_data, 'refresh_func_ret')</text></g></g><g transform="translate(-14,2) scale(1,1)"><path fill="none" stroke="#000000" d="M 894 386 L 990 370" stroke-miterlimit="10" stroke-dasharray="3"></path></g><g transform="translate(-14,2) scale(1,1)"><path fill="#ffffff" stroke="none" d="M 968 392 L 1298 392 L 1308 402 L 1308 440 L 968 440 L 968 392"></path></g><g transform="translate(-14,2) scale(1,1)"><path fill="none" stroke="#000000" d="M 968 392 L 1298 392 L 1308 402 L 1308 440 L 968 440 L 968 392 L 968 392" stroke-miterlimit="10"></path></g><g transform="translate(-14,2) scale(1,1)"><path fill="none" stroke="#000000" d="M 1298 392 L 1298 402 L 1308 402 L 1298 392" stroke-miterlimit="10"></path></g><g transform="translate(-14,2) scale(1,1)"><g><path fill="none" stroke="none"></path><text fill="#000000" stroke="none" font-family="Arial" font-size="13px" font-style="normal" font-weight="normal" text-decoration="none" x="973" y="410">pub.subscribe(self._refresh_parasdata, 'save_paras')</text></g></g><g transform="translate(-14,2) scale(1,1)"><path fill="none" stroke="#000000" d="M 894 414 L 967 414" stroke-miterlimit="10" stroke-dasharray="3"></path></g><g transform="translate(-14,2) scale(1,1)"><path fill="#ffffff" stroke="none" d="M 968 456 L 1333 456 L 1343 466 L 1343 510 L 968 510 L 968 456"></path></g><g transform="translate(-14,2) scale(1,1)"><path fill="none" stroke="#000000" d="M 968 456 L 1333 456 L 1343 466 L 1343 510 L 968 510 L 968 456 L 968 456" stroke-miterlimit="10"></path></g><g transform="translate(-14,2) scale(1,1)"><path fill="none" stroke="#000000" d="M 1333 456 L 1333 466 L 1343 466 L 1333 456" stroke-miterlimit="10"></path></g><g transform="translate(-14,2) scale(1,1)"><g><path fill="none" stroke="none"></path><text fill="#000000" stroke="none" font-family="Arial" font-size="13px" font-style="normal" font-weight="normal" text-decoration="none" x="973" y="474">pub.subscribe(self._unselete_all, 'UnSelectAll_controlprocess')</text></g></g><g transform="translate(-14,2) scale(1,1)"><path fill="none" stroke="#000000" d="M 894 438 L 991 455" stroke-miterlimit="10" stroke-dasharray="3"></path></g><g transform="translate(-14,2) scale(1,1)"><path fill="none" stroke="#000000" d="M 741 799 L 739 506" stroke-miterlimit="10"></path></g><g transform="translate(-14,2) scale(1,1)"><path fill="none" stroke="#000000" d="M 743.2787878697098 516.1337048687054 L 739 506 L 734.8599484867259 516.1911713491353" stroke-miterlimit="10"></path></g><g transform="translate(-14,2) scale(1,1)"><g><path fill="none" stroke="none"></path><text fill="#000000" stroke="none" font-family="Arial" font-size="13px" font-style="normal" font-weight="normal" text-decoration="none" x="608" y="675">+refresh function data</text></g></g><g transform="translate(-14,2) scale(1,1)"><path fill="none" stroke="#000000" d="M 752 320 L 752 300 L 930 300 L 930 368 L 893 368" stroke-miterlimit="10"></path></g><g transform="translate(-14,2) scale(1,1)"><path fill="none" stroke="#000000" d="M 903.1626748576241 363.790482243984 L 893 368 L 903.1626748576241 372.209517756016" stroke-miterlimit="10"></path></g><g transform="translate(-14,2) scale(1,1)"><g><path fill="none" stroke="none"></path><text fill="#000000" stroke="none" font-family="Arial" font-size="13px" font-style="normal" font-weight="normal" text-decoration="none" x="752" y="292">+view control(operation: refresh_current_selection)</text></g></g><g transform="translate(-14,2) scale(1,1)"><g><path fill="none" stroke="none"></path><text fill="#000000" stroke="none" font-family="Arial" font-size="13px" font-style="normal" font-weight="normal" text-decoration="none" x="911" y="362">1</text></g></g><g transform="translate(-14,2) scale(1,1)"><rect fill="#C0C0C0" stroke="none" x="687" y="47" width="122" height="72" opacity="0.2"></rect></g><g transform="translate(-14,2) scale(1,1)"><rect fill="#ffffff" stroke="none" x="680" y="40" width="122" height="72"></rect></g><g transform="translate(-14,2) scale(1,1)"><path fill="none" stroke="#000000" d="M 680 40 L 802 40 L 802 112 L 680 112 L 680 40 Z Z" stroke-miterlimit="10"></path></g><g transform="translate(-14,2) scale(1,1)"><path fill="none" stroke="#000000" d="M 680 65 L 802 65" stroke-miterlimit="10"></path></g><g transform="translate(-14,2) scale(1,1)"><path fill="none" stroke="#000000" d="M 680 75 L 802 75" stroke-miterlimit="10"></path></g><g transform="translate(-14,2) scale(1,1)"><g><path fill="none" stroke="none"></path><text fill="#000000" stroke="none" font-family="Arial" font-size="13px" font-style="normal" font-weight="bold" text-decoration="none" x="690.5" y="59.5">pubsub Controller</text></g></g><g transform="translate(-14,2) scale(1,1)"><g><path fill="none" stroke="none"></path><text fill="#000000" stroke="none" font-family="Arial" font-size="13px" font-style="normal" font-weight="normal" text-decoration="none" x="685" y="92.5">+sendMessage()</text></g></g><g transform="translate(-14,2) scale(1,1)"><g><path fill="none" stroke="none"></path><text fill="#000000" stroke="none" font-family="Arial" font-size="13px" font-style="normal" font-weight="normal" text-decoration="none" x="685" y="107.5">+subscribe()</text></g></g><g transform="translate(-14,2) scale(1,1)"><path fill="none" stroke="#000000" d="M 739 319 L 741 113" stroke-miterlimit="10"></path></g><g transform="translate(-14,2) scale(1,1)"><path fill="none" stroke="#000000" d="M 745.1106572799538 123.2030631051054 L 741 113 L 736.6920185272949 123.12132874828346" stroke-miterlimit="10"></path></g><g transform="translate(-14,2) scale(1,1)"><g><path fill="none" stroke="none"></path><text fill="#000000" stroke="none" font-family="Arial" font-size="13px" font-style="normal" font-weight="normal" text-decoration="none" x="742" y="172">+refresh paras data</text></g></g><g transform="translate(-14,2) scale(1,1)"><path fill="#ffffff" stroke="none" d="M 800 192 L 1112 192 L 1122 202 L 1122 231 L 800 231 L 800 192"></path></g><g transform="translate(-14,2) scale(1,1)"><path fill="none" stroke="#000000" d="M 800 192 L 1112 192 L 1122 202 L 1122 231 L 800 231 L 800 192 L 800 192" stroke-miterlimit="10"></path></g><g transform="translate(-14,2) scale(1,1)"><path fill="none" stroke="#000000" d="M 1112 192 L 1112 202 L 1122 202 L 1112 192" stroke-miterlimit="10"></path></g><g transform="translate(-14,2) scale(1,1)"><g><path fill="none" stroke="none"></path><text fill="#000000" stroke="none" font-family="Arial" font-size="13px" font-style="normal" font-weight="normal" text-decoration="none" x="805" y="210">pub.sendMessage('refresh_paras',data=refresh_data)</text></g></g><g transform="translate(-14,2) scale(1,1)"><path fill="none" stroke="#000000" d="M 740 216 L 799 215" stroke-miterlimit="10" stroke-dasharray="3"></path></g><g transform="translate(-14,2) scale(1,1)"><path fill="none" stroke="#000000" d="M 803 77 L 1736 88 L 1738 199" stroke-miterlimit="10"></path></g><g transform="translate(-14,2) scale(1,1)"><path fill="none" stroke="#000000" d="M 1733.6080838429712 188.9148092497152 L 1738 199 L 1742.0257530720485 188.76313953387597" stroke-miterlimit="10"></path></g><g transform="translate(-14,2) scale(1,1)"><g><path fill="none" stroke="none"></path><text fill="#000000" stroke="none" font-family="Arial" font-size="13px" font-style="normal" font-weight="normal" text-decoration="none" x="1200" y="76">+send paras data</text></g></g><g transform="translate(-14,2) scale(1,1)"><path fill="#ffffff" stroke="none" d="M 1816 56 L 2149 56 L 2159 66 L 2159 92 L 1816 92 L 1816 56"></path></g><g transform="translate(-14,2) scale(1,1)"><path fill="none" stroke="#000000" d="M 1816 56 L 2149 56 L 2159 66 L 2159 92 L 1816 92 L 1816 56 L 1816 56" stroke-miterlimit="10"></path></g><g transform="translate(-14,2) scale(1,1)"><path fill="none" stroke="#000000" d="M 2149 56 L 2149 66 L 2159 66 L 2149 56" stroke-miterlimit="10"></path></g><g transform="translate(-14,2) scale(1,1)"><g><path fill="none" stroke="none"></path><text fill="#000000" stroke="none" font-family="Arial" font-size="13px" font-style="normal" font-weight="normal" text-decoration="none" x="1821" y="74">pub.subscribe(self.refresh_paras_panel1, 'refresh_paras')</text></g></g><g transform="translate(-14,2) scale(1,1)"><path fill="none" stroke="#000000" d="M 1785 199 L 1956 94" stroke-miterlimit="10" stroke-dasharray="3"></path></g><g transform="translate(-14,2) scale(1,1)"><path fill="#ffffff" stroke="none" d="M 1616 8 L 1973 8 L 1983 18 L 1983 40 L 1616 40 L 1616 8"></path></g><g transform="translate(-14,2) scale(1,1)"><path fill="none" stroke="#000000" d="M 1616 8 L 1973 8 L 1983 18 L 1983 40 L 1616 40 L 1616 8 L 1616 8" stroke-miterlimit="10"></path></g><g transform="translate(-14,2) scale(1,1)"><path fill="none" stroke="#000000" d="M 1973 8 L 1973 18 L 1983 18 L 1973 8" stroke-miterlimit="10"></path></g><g transform="translate(-14,2) scale(1,1)"><g><path fill="none" stroke="none"></path><text fill="#000000" stroke="none" font-family="Arial" font-size="13px" font-style="normal" font-weight="normal" text-decoration="none" x="1621" y="26">pub.subscribe(self._remove_allcontrols, 'remove_all_paras')</text></g></g><g transform="translate(-14,2) scale(1,1)"><path fill="none" stroke="#000000" d="M 1747 199 L 1795 42" stroke-miterlimit="10" stroke-dasharray="3"></path></g><g transform="translate(-14,2) scale(1,1)"><path fill="#ffffff" stroke="none" d="M 1968 104 L 2277 104 L 2287 114 L 2287 135 L 1968 135 L 1968 104"></path></g><g transform="translate(-14,2) scale(1,1)"><path fill="none" stroke="#000000" d="M 1968 104 L 2277 104 L 2287 114 L 2287 135 L 1968 135 L 1968 104 L 1968 104" stroke-miterlimit="10"></path></g><g transform="translate(-14,2) scale(1,1)"><path fill="none" stroke="#000000" d="M 2277 104 L 2277 114 L 2287 114 L 2277 104" stroke-miterlimit="10"></path></g><g transform="translate(-14,2) scale(1,1)"><g><path fill="none" stroke="none"></path><text fill="#000000" stroke="none" font-family="Arial" font-size="13px" font-style="normal" font-weight="normal" text-decoration="none" x="1973" y="122">pub.subscribe(self._get_MainMsg, 'get_main_msg')</text></g></g><g transform="translate(-14,2) scale(1,1)"><path fill="none" stroke="#000000" d="M 1843 199 L 2067 137" stroke-miterlimit="10" stroke-dasharray="3"></path></g><g transform="translate(-14,2) scale(1,1)"><path fill="none" stroke="#000000" d="M 236 495 L 232 80 L 679 76" stroke-miterlimit="10"></path></g><g transform="translate(-14,2) scale(1,1)"><path fill="none" stroke="#000000" d="M 668.8753995681013 80.30028674560175 L 679 76 L 668.8000644589386 71.88158829666187" stroke-miterlimit="10"></path></g><g transform="translate(-14,2) scale(1,1)"><g><path fill="none" stroke="none"></path><text fill="#000000" stroke="none" font-family="Arial" font-size="13px" font-style="normal" font-weight="normal" text-decoration="none" x="256" y="72">+unselect process function and remove all paras</text></g></g><g transform="translate(-14,2) scale(1,1)"><path fill="#ffffff" stroke="none" d="M 304 144 L 590 144 L 600 154 L 600 195 L 304 195 L 304 144"></path></g><g transform="translate(-14,2) scale(1,1)"><path fill="none" stroke="#000000" d="M 304 144 L 590 144 L 600 154 L 600 195 L 304 195 L 304 144 L 304 144" stroke-miterlimit="10"></path></g><g transform="translate(-14,2) scale(1,1)"><path fill="none" stroke="#000000" d="M 590 144 L 590 154 L 600 154 L 590 144" stroke-miterlimit="10"></path></g><g transform="translate(-14,2) scale(1,1)"><g><path fill="none" stroke="none"></path><text fill="#000000" stroke="none" font-family="Arial" font-size="13px" font-style="normal" font-weight="normal" text-decoration="none" x="309" y="162"> pub.sendMessage('UnSelectAll_controlprocess')</text></g></g><g transform="translate(-14,2) scale(1,1)"><g><path fill="none" stroke="none"></path><text fill="#000000" stroke="none" font-family="Arial" font-size="13px" font-style="normal" font-weight="normal" text-decoration="none" x="309" y="177"> pub.sendMessage('remove_all_paras')</text></g></g><g transform="translate(-14,2) scale(1,1)"><path fill="none" stroke="#000000" d="M 455 78 L 453 143" stroke-miterlimit="10" stroke-dasharray="3"></path></g><g transform="translate(-14,2) scale(1,1)"><path fill="none" stroke="#000000" d="M 803 85 L 1559 201" stroke-miterlimit="10"></path></g><g transform="translate(-14,2) scale(1,1)"><path fill="none" stroke="#000000" d="M 1548.3164530907761 203.61950862537452 L 1559 201 L 1549.593319220984 195.29786384574214" stroke-miterlimit="10"></path></g><g transform="translate(-14,2) scale(1,1)"><g><path fill="none" stroke="none"></path><text fill="#000000" stroke="none" font-family="Arial" font-size="13px" font-style="normal" font-weight="normal" text-decoration="none" x="1132" y="135">+remove all paras</text></g></g><g transform="translate(-14,2) scale(1,1)"><path fill="none" stroke="#000000" d="M 719 113 Q 664 208 704 319" stroke-miterlimit="10"></path></g><g transform="translate(-14,2) scale(1,1)"><path fill="none" stroke="#000000" d="M 696.5944270429386 310.8662745818634 L 704 319 L 704.514881542964 308.01205674401643" stroke-miterlimit="10"></path></g><g transform="translate(-14,2) scale(1,1)"><g><path fill="none" stroke="none"></path><text fill="#000000" stroke="none" font-family="Arial" font-size="13px" font-style="normal" font-weight="normal" text-decoration="none" x="558" y="228">+unselect process function</text></g></g><g transform="translate(-14,2) scale(1,1)"><rect fill="#C0C0C0" stroke="none" x="1687" y="431" width="122" height="72" opacity="0.2"></rect></g><g transform="translate(-14,2) scale(1,1)"><rect fill="#ffffff" stroke="none" x="1680" y="424" width="122" height="72"></rect></g><g transform="translate(-14,2) scale(1,1)"><path fill="none" stroke="#000000" d="M 1680 424 L 1802 424 L 1802 496 L 1680 496 L 1680 424 Z Z" stroke-miterlimit="10"></path></g><g transform="translate(-14,2) scale(1,1)"><path fill="none" stroke="#000000" d="M 1680 449 L 1802 449" stroke-miterlimit="10"></path></g><g transform="translate(-14,2) scale(1,1)"><path fill="none" stroke="#000000" d="M 1680 459 L 1802 459" stroke-miterlimit="10"></path></g><g transform="translate(-14,2) scale(1,1)"><g><path fill="none" stroke="none"></path><text fill="#000000" stroke="none" font-family="Arial" font-size="13px" font-style="normal" font-weight="bold" text-decoration="none" x="1690.5" y="443.5">pubsub Controller</text></g></g><g transform="translate(-14,2) scale(1,1)"><g><path fill="none" stroke="none"></path><text fill="#000000" stroke="none" font-family="Arial" font-size="13px" font-style="normal" font-weight="normal" text-decoration="none" x="1685" y="476.5">+sendMessage()</text></g></g><g transform="translate(-14,2) scale(1,1)"><g><path fill="none" stroke="none"></path><text fill="#000000" stroke="none" font-family="Arial" font-size="13px" font-style="normal" font-weight="normal" text-decoration="none" x="1685" y="491.5">+subscribe()</text></g></g><g transform="translate(-14,2) scale(1,1)"><path fill="none" stroke="#000000" d="M 1738 258 L 1741 423" stroke-miterlimit="10"></path></g><g transform="translate(-14,2) scale(1,1)"><path fill="none" stroke="#000000" d="M 1736.6064324869806 412.9155285459008 L 1741 423 L 1745.0240767678188 412.7624804680674" stroke-miterlimit="10"></path></g><g transform="translate(-14,2) scale(1,1)"><g><path fill="none" stroke="none"></path><text fill="#000000" stroke="none" font-family="Arial" font-size="13px" font-style="normal" font-weight="normal" text-decoration="none" x="1745" y="333">+save paras</text></g></g><g transform="translate(-14,2) scale(1,1)"><path fill="none" stroke="#000000" d="M 2239 417 L 1803 455" stroke-miterlimit="10"></path></g><g transform="translate(-14,2) scale(1,1)"><path fill="none" stroke="#000000" d="M 1812.7587957075796 449.92398716139076 L 1803 455 L 1813.4897937206142 458.3112275214731" stroke-miterlimit="10"></path></g><g transform="translate(-14,2) scale(1,1)"><g><path fill="none" stroke="none"></path><text fill="#000000" stroke="none" font-family="Arial" font-size="13px" font-style="normal" font-weight="normal" text-decoration="none" x="1987" y="457">+save paras</text></g></g><g transform="translate(-14,2) scale(1,1)"><path fill="none" stroke="#000000" d="M 2167 489 L 1803 464" stroke-miterlimit="10"></path></g><g transform="translate(-14,2) scale(1,1)"><path fill="none" stroke="#000000" d="M 1813.427225766236 460.4967211330038 L 1803 464 L 1812.8503542915091 468.89596980502813" stroke-miterlimit="10"></path></g><g transform="translate(-14,2) scale(1,1)"><g><path fill="none" stroke="none"></path><text fill="#000000" stroke="none" font-family="Arial" font-size="13px" font-style="normal" font-weight="normal" text-decoration="none" x="1949" y="497">+save paras</text></g></g><g transform="translate(-14,2) scale(1,1)"><path fill="#ffffff" stroke="none" d="M 1884 320 L 2189 320 L 2199 330 L 2199 367 L 1884 367 L 1884 320"></path></g><g transform="translate(-14,2) scale(1,1)"><path fill="none" stroke="#000000" d="M 1884 320 L 2189 320 L 2199 330 L 2199 367 L 1884 367 L 1884 320 L 1884 320" stroke-miterlimit="10"></path></g><g transform="translate(-14,2) scale(1,1)"><path fill="none" stroke="#000000" d="M 2189 320 L 2189 330 L 2199 330 L 2189 320" stroke-miterlimit="10"></path></g><g transform="translate(-14,2) scale(1,1)"><g><path fill="none" stroke="none"></path><text fill="#000000" stroke="none" font-family="Arial" font-size="13px" font-style="normal" font-weight="normal" text-decoration="none" x="1889" y="338">pub.sendMessage('save_paras', refresh_type =</text><text fill="#000000" stroke="none" font-family="Arial" font-size="13px" font-style="normal" font-weight="normal" text-decoration="none" x="1889" y="351">'refresh', data = showdata)</text></g></g><g transform="translate(-14,2) scale(1,1)"><path fill="none" stroke="#000000" d="M 1739 340 L 1883 342" stroke-miterlimit="10" stroke-dasharray="3"></path></g><g transform="translate(-14,2) scale(1,1)"><path fill="none" stroke="#000000" d="M 1679 473 Q 960 624 836 506" stroke-miterlimit="10"></path></g><g transform="translate(-14,2) scale(1,1)"><path fill="none" stroke="#000000" d="M 846.2638888827101 509.956334794147 L 836 506 L 840.4601142687239 516.0552165918953" stroke-miterlimit="10"></path></g><g transform="translate(-14,2) scale(1,1)"><g><path fill="none" stroke="none"></path><text fill="#000000" stroke="none" font-family="Arial" font-size="13px" font-style="normal" font-weight="normal" text-decoration="none" x="1102" y="569">+save_paras</text></g></g><g transform="translate(-14,2) scale(1,1)"><path fill="none" stroke="#000000" d="M 796 506 L 888 656 L 1103 653" stroke-miterlimit="10" stroke-dasharray="3"></path></g><g transform="translate(-14,2) scale(1,1)"><path fill="none" stroke="#000000" d="M 1092.8970460733135 657.350898982423 L 1103 653 L 1092.7795825936957 648.9326829431536" stroke-miterlimit="10"></path></g><g transform="translate(-14,2) scale(1,1)"><g><path fill="none" stroke="none"></path><text fill="#000000" stroke="none" font-family="Arial" font-size="13px" font-style="normal" font-weight="normal" text-decoration="none" x="909" y="613">+return itemdata after controlling</text></g></g><g transform="translate(-14,2) scale(1,1)"><path fill="none" stroke="#000000" d="M 1103 636 L 928 616 L 826 506" stroke-miterlimit="10"></path></g><g transform="translate(-14,2) scale(1,1)"><path fill="none" stroke="#000000" d="M 835.9967100339717 510.5897481953469 L 826 506 L 829.8232993817085 516.3141835274455" stroke-miterlimit="10"></path></g><g transform="translate(-14,2) scale(1,1)"><g><path fill="none" stroke="none"></path><text fill="#000000" stroke="none" font-family="Arial" font-size="13px" font-style="normal" font-weight="normal" text-decoration="none" x="792" y="676">+return control item datas(operation: control_model)</text></g></g><g transform="translate(-14,2) scale(1,1)"><path fill="none" stroke="#000000" d="M 750 505 L 750 736 M 750 736 A 8 8 0 0 0 758 744 L 776 744 M 776 744 A 8 8 0 0 1 784 752 L 784 800" stroke-miterlimit="10"></path></g><g transform="translate(-14,2) scale(1,1)"><path fill="none" stroke="#000000" d="M 779.790482243984 789.8373251423759 L 784 800 L 788.209517756016 789.8373251423759" stroke-miterlimit="10"></path></g><g transform="translate(-14,2) scale(1,1)"><g><path fill="none" stroke="none"></path><text fill="#000000" stroke="none" font-family="Arial" font-size="13px" font-style="normal" font-weight="normal" text-decoration="none" x="759" y="736">+refresh show data</text></g></g><g transform="translate(-14,2) scale(1,1)"><path fill="#ffffff" stroke="none" d="M 928 720 L 1501 720 L 1511 730 L 1511 767 L 928 767 L 928 720"></path></g><g transform="translate(-14,2) scale(1,1)"><path fill="none" stroke="#000000" d="M 928 720 L 1501 720 L 1511 730 L 1511 767 L 928 767 L 928 720 L 928 720" stroke-miterlimit="10"></path></g><g transform="translate(-14,2) scale(1,1)"><path fill="none" stroke="#000000" d="M 1501 720 L 1501 730 L 1511 730 L 1501 720" stroke-miterlimit="10"></path></g><g transform="translate(-14,2) scale(1,1)"><g><path fill="none" stroke="none"></path><text fill="#000000" stroke="none" font-family="Arial" font-size="13px" font-style="normal" font-weight="normal" text-decoration="none" x="933" y="738">pub.sendMessage('refresh_show_modeldata', data=(self.model.items[:], self._funcs_unlimit, ))</text></g></g><g transform="translate(-14,2) scale(1,1)"><path fill="none" stroke="#000000" d="M 767 744 L 927 744" stroke-miterlimit="10" stroke-dasharray="3"></path></g><g transform="translate(-14,2) scale(1,1)"><path fill="none" stroke="#000000" d="M 803 844 L 1095 885" stroke-miterlimit="10"></path></g><g transform="translate(-14,2) scale(1,1)"><path fill="none" stroke="#000000" d="M 1084.3507268214519 887.7555363849272 L 1095 885 L 1085.5213682571525 879.418285184329" stroke-miterlimit="10"></path></g><g transform="translate(-14,2) scale(1,1)"><g><path fill="none" stroke="none"></path><text fill="#000000" stroke="none" font-family="Arial" font-size="13px" font-style="normal" font-weight="normal" text-decoration="none" x="896" y="856">+refresh show data</text></g></g><g transform="translate(-14,2) scale(1,1)"><path fill="#ffffff" stroke="none" d="M 1493 880 L 1581 880 L 1591 890 L 1591 928 L 1493 928 L 1493 880"></path></g><g transform="translate(-14,2) scale(1,1)"><path fill="none" stroke="#000000" d="M 1493 880 L 1581 880 L 1591 890 L 1591 928 L 1493 928 L 1493 880 L 1493 880" stroke-miterlimit="10"></path></g><g transform="translate(-14,2) scale(1,1)"><path fill="none" stroke="#000000" d="M 1581 880 L 1581 890 L 1591 890 L 1581 880" stroke-miterlimit="10"></path></g><g transform="translate(-14,2) scale(1,1)"><path fill="none" stroke="#000000" d="M 1424 905 L 1492 905" stroke-miterlimit="10" stroke-dasharray="3"></path></g><g transform="translate(-14,2) scale(1,1)"><path fill="#ffffff" stroke="none" d="M 1493 880 L 1933 880 L 1943 890 L 1943 928 L 1493 928 L 1493 880"></path></g><g transform="translate(-14,2) scale(1,1)"><path fill="none" stroke="#000000" d="M 1493 880 L 1933 880 L 1943 890 L 1943 928 L 1493 928 L 1493 880 L 1493 880" stroke-miterlimit="10"></path></g><g transform="translate(-14,2) scale(1,1)"><path fill="none" stroke="#000000" d="M 1933 880 L 1933 890 L 1943 890 L 1933 880" stroke-miterlimit="10"></path></g><g transform="translate(-14,2) scale(1,1)"><g><path fill="none" stroke="none"></path><text fill="#000000" stroke="none" font-family="Arial" font-size="13px" font-style="normal" font-weight="normal" text-decoration="none" x="1498" y="898">pub.subscribe(self.refresh_show_modeldata,'refresh_show_modeldata')</text></g></g><g transform="translate(-14,2) scale(1,1)"><path fill="none" stroke="#000000" d="M 1424 906 L 1492 905" stroke-miterlimit="10" stroke-dasharray="3"></path></g><g transform="translate(-14,2) scale(1,1)"><path fill="#ffffff" stroke="none" d="M 1493 939 L 1964 939 L 1974 949 L 1974 987 L 1493 987 L 1493 939"></path></g><g transform="translate(-14,2) scale(1,1)"><path fill="none" stroke="#000000" d="M 1493 939 L 1964 939 L 1974 949 L 1974 987 L 1493 987 L 1493 939 L 1493 939" stroke-miterlimit="10"></path></g><g transform="translate(-14,2) scale(1,1)"><path fill="none" stroke="#000000" d="M 1964 939 L 1964 949 L 1974 949 L 1964 939" stroke-miterlimit="10"></path></g><g transform="translate(-14,2) scale(1,1)"><g><path fill="none" stroke="none"></path><text fill="#000000" stroke="none" font-family="Arial" font-size="13px" font-style="normal" font-weight="normal" text-decoration="none" x="1498" y="957">pub.subscribe(self.refresh_show_onlyrefreshdata,'refresh_show_onlyrefreshdata')</text></g></g><g transform="translate(-14,2) scale(1,1)"><path fill="none" stroke="#000000" d="M 1424 926 L 1522 938" stroke-miterlimit="10" stroke-dasharray="3"></path></g><g transform="translate(-14,2) scale(1,1)"><path fill="#ffffff" stroke="none" d="M 928 792 L 1493 792 L 1503 802 L 1503 840 L 928 840 L 928 792"></path></g><g transform="translate(-14,2) scale(1,1)"><path fill="none" stroke="#000000" d="M 928 792 L 1493 792 L 1503 802 L 1503 840 L 928 840 L 928 792 L 928 792" stroke-miterlimit="10"></path></g><g transform="translate(-14,2) scale(1,1)"><path fill="none" stroke="#000000" d="M 1493 792 L 1493 802 L 1503 802 L 1493 792" stroke-miterlimit="10"></path></g><g transform="translate(-14,2) scale(1,1)"><g><path fill="none" stroke="none"></path><text fill="#000000" stroke="none" font-family="Arial" font-size="13px" font-style="normal" font-weight="normal" text-decoration="none" x="933" y="810">pub.sendMessage('refresh_show_onlyrefreshdata',data=(self.model.items[:], self._funcs_unlimit, ))</text></g></g><g transform="translate(-14,2) scale(1,1)"><path fill="none" stroke="#000000" d="M 767 744 L 856 744 L 856 816 L 927 816" stroke-miterlimit="10" stroke-dasharray="3"></path></g><g transform="translate(-14,2) scale(1,1)"><path fill="none" stroke="#000000" d="M 2201 363 L 2239 367" stroke-miterlimit="10" stroke-dasharray="3"></path></g><g transform="translate(-14,2) scale(1,1)"><path fill="none" stroke="#000000" d="M 2099 369 L 2276 447" stroke-miterlimit="10" stroke-dasharray="3"></path></g></g></svg>